<svg width="410" height="174" viewBox="0 0 410 174" fill="none" xmlns="http://www.w3.org/2000/svg">
<path d="M182 0C234.574 0 278.291 30.121 287.299 69.8242C293.521 69.2829 299.939 69 306.5 69C363.661 69 410 90.4903 410 117C410 143.51 363.661 165 306.5 165C282.535 165 260.473 161.222 242.93 154.881C225.639 164.413 204.641 170 182 170C159.861 170 139.293 164.658 122.226 155.51C110.898 166.563 89.7365 174 65.5 174C29.3253 174 0 157.435 0 137C0 116.565 29.3253 100 65.5 100C69.3493 100 73.121 100.189 76.7881 100.549C75.615 95.5077 75 90.3109 75 85C75 38.0558 122.906 0 182 0Z" fill="white"/>
</svg>
