<svg width="386" height="137" viewBox="0 0 386 137" fill="none" xmlns="http://www.w3.org/2000/svg">
<path d="M181.5 0C229.723 0 270.459 18.3576 283.571 43.5371C291.394 41.8921 299.779 41 308.5 41C351.302 41 386 62.4903 386 89C386 115.51 351.302 137 308.5 137C279.056 137 253.448 126.831 240.331 111.854C223.475 118.264 203.249 122 181.5 122C158.133 122 136.523 117.688 118.963 110.38C107.096 119.831 87.5736 126 65.5 126C29.3253 126 0 109.435 0 89C0 68.5655 29.3253 52 65.5 52C69.0847 52 72.6019 52.1655 76.0303 52.4785C83.2673 22.8231 127.731 0 181.5 0Z" fill="white"/>
</svg>
