<svg width="279" height="437" viewBox="0 0 279 437" fill="none" xmlns="http://www.w3.org/2000/svg">
<rect x="113.782" y="141.838" width="52.9943" height="294.586" fill="#914405"/>
<path d="M178.466 0C210.747 0 236.916 35.9383 236.916 80.2705C236.916 95.5107 233.823 109.759 228.453 121.896C258.46 131.834 278.999 152.039 278.999 175.349C278.999 208.49 237.479 235.357 186.26 235.357C159.456 235.357 135.308 227.999 118.377 216.234C112.077 252.232 88.3358 278.999 60.0078 278.999C26.8664 278.999 0 242.363 0 197.17C1.57498e-05 173.63 7.28889 152.412 18.957 137.483C7.17705 125.037 6.74924e-05 108.522 0 90.4023C0 51.6654 32.7982 20.2627 73.2568 20.2627C94.4132 20.2627 113.475 28.8491 126.848 42.5811C136.676 17.246 156.104 0.000168694 178.466 0Z" fill="#05B334"/>
</svg>
